# xmcd
#
# Track frame offsets:
#	150
#	8484
#	20854
#	32160
#	42657
#	61237
#	71569
#	84023
#	96328
#	105322
#	115930
#	126742
#	137674
#	148659
#	159561
#	171026
#	185911
#	198618
#	212175
#
# Disc length: 3004 seconds
#
# Revision: 0
# Processed by: cddbd v1.5.2PL0 Copyright (c) Steve Scherf et al.
# Submitted via: EasyCDDAExtractor 16.0.1.1
#
DISCID=190bba13
DTITLE=Roy Clark - Roy Clark -66+ He'll Have To Go -66
DYEAR=1966
DGENRE=Country
TTITLE0=Live Fast  Love Hard  Die Young
TTITLE1=I'd Have Never Found Somebody New
TTITLE2=I Was Sort Of Wonderin'
TTITLE3=Just Like That There
TTITLE4=The Last Letter
TTITLE5=As Long As I'm Moving
TTITLE6=You're Always Brand New To Me
TTITLE7=Goodtime Charlie
TTITLE8=Application For Love
TTITLE9=Turn Around And Look Again
TTITLE10=Happy To Be Unhappy
TTITLE11=In A Million Years Or So
TTITLE12=But I Was Lying
TTITLE13=Hello Old Broken Heart
TTITLE14=I'm Forgetting Now
TTITLE15=He'll Have To Go
TTITLE16=Through The Eyes Of A Fool
TTITLE17=I'm Afraid Of The Dark
TTITLE18=You Took Her Off My Hands
EXTD=
EXTT0=
EXTT1=
EXTT2=
EXTT3=
EXTT4=
EXTT5=
EXTT6=
EXTT7=
EXTT8=
EXTT9=
EXTT10=
EXTT11=
EXTT12=
EXTT13=
EXTT14=
EXTT15=
EXTT16=
EXTT17=
EXTT18=
PLAYORDER=
